<?xml version="1.0" encoding="UTF-8"?>
<svg id="Camada_2" data-name="Camada 2" xmlns="http://www.w3.org/2000/svg" viewBox="0 0 768.08 768.03">
  <defs>
    <style>
      .cls-1 {
        fill: #f3f4f6;
      }
    </style>
  </defs>
  <g id="Camada_1-2" data-name="Camada 1">
    <g>
      <path class="cls-1" d="M105.84.29l553.69-.29c59.04,3.97,105.04,50.45,108.55,109.45v551.08c-3.58,57.94-50.9,103.88-108.5,107.5H110.5c-58.33-3.72-106.23-48.75-110.5-107.5L.05,105.5C5.16,49.55,49.61,4.71,105.84.29ZM558.68,169.37c.64.49.77,2.05,2,2.45,4.3,1.4,22.35-1.2,23.35-6.36,2.11-10.88-10.84-39.3-11.01-51.95-1.71-4.52-8.14-8.51-12.72-9.28-10.44-1.78-47,7.3-59.27,10.25-1.57.38-9.02,1.77-8.97,3.01l42.88,31.1c6.82,7.39,15.62,14.63,23.74,20.78ZM514.04,183.98c.38-1.68-.55-2.02-1.52-2.97-8.04-7.89-25-17.56-34.95-25.05-12.72-9.57-24.18-21.07-38.5-28.52-15.65,2.73-31.57,5.37-47.04,9.04-2.78.66-6.39.73-7.44,3.4l-3.54-.88c-1.14,1.05,3.56,5.12,4.52,5.97,9.19,8.11,22.24,15.96,32.37,23.63,11.51,8.72,22.72,17.99,34.05,26.95,1.79.74,3.57.48,5.42.35,10.87-.77,29.39-5.76,40.65-8.39,3.79-.88,9.84-1.07,11.42-4.39l4.56.87ZM267.2,163.12c-.74,1.91,2.31,3.64,3.37,4.84l64.19,50.84c1.21.43,2.41.22,3.65.12,11.58-.95,33.44-6.61,45.64-9.42,2.37-.55,14.94-3.15,14.97-5.01-1.65-2.3-4.98-1.56-6.94-3.04-1.42-1.07-1.57-3.42-3.11-4.89-9.45-8.95-27.08-21.74-38.01-29.99-3.53-2.66-20.4-15.1-23.07-15.92-3.07-.95-5.01-.68-8.07-.38-11.04,1.08-38.79,7.06-49.3,10.65-.43.15-3.24,2.02-3.32,2.2ZM181.04,251.99l-5.01,1.01c2.44,5.31-7.55,7.37-7.02,13.47l.03,254.01c3.43,23.75,23.73,31.06,45.51,28.53,9.79-1.14,9.61-16.68,14.49-23.51.03-1.01-15.84-1.39-17.4-1.62-14.22-2.09-15.86-10.67-16.66-23.34-3.14-50.17,2.48-103.57,0-154.09,2.42-6.02-.36-15.42,1.23-20.77,2.19-7.33,23.46-1.26,29.36-4.64l53.91-59.09,5.52-4.46c-.64-.47-2.17-2.5-2.48-2.5h-103.5v-.99s5-1.51,5-1.51c-.23-.97-2.09-.45-3-.5l95.79-21.68,1.87-4.89c-20.92-18.24-44.8-33.64-63.65-53.99-11.73,2.41-23.97,4.12-35.45,7.62-3.69,1.13-15.32,5.25-17.61,7.39-4.13,3.87-4.28,8.79-3.98,14.09.35,6.29,7.66,39.84,10.26,44.73,3.33,6.24,6.61,6.45,12.77,6.73ZM405.04,254.99h-64.5c-6.72,0-10.16,7.9-13.99,12.01-10.42,11.21-21.67,21.76-32.03,32.97-3.74,4.05-14.12,14.73-16.53,18.47-.8,1.23-1.23,1.99-.95,3.55h63.5c3.6-2.27,6.65-5.39,9.53-8.47,15.36-16.48,33.94-40.17,50.47-54.53,1.93-1.68,5.1-1.22,4.51-3.99ZM394.04,321.99h65.5l57.55-60.44c1.67-2.33,1.72-6.24-1.55-6.56l-62.07.93-59.43,66.07ZM515.04,321.99h52.5c2.41,0,5.19,5.98,4.54,8.47l-.15,178.92c-2.23,18.36-18.26,13.52-31.9,15.61l.02,2.99,1.48-1.99,1.49,1.49c-.85.76-1.79,1.54-1.79,2.81,0,2.65,6.12,15.75,9.07,16.93,3.32,1.33,19.02,1.22,23.16.68,14.12-1.84,25.13-16.66,25.46-30.54-.4-84.56,1.45-169.38-.94-253.8l-6.63-8.37-19.27.31c-10.98,12.64-22.11,25.23-33.51,37.49-5.6,6.03-12.88,11.8-18.03,17.97-2.66,3.19-6.34,6.51-5.49,11.01ZM363.69,519.64c6.1-6.53,14.08-20.73,24.83-18.63,4.74.93,25.26,25.96,31.02,30,2.2,4.77-3.94,12.75-5.54,17.44-17.28,50.66,33.1,101.21,81.96,72.96,45.63-26.38,37.8-92.72-13.14-107.7-3.61-1.06-9.67-2.51-13.28-2.51-6.42,0-15.94,4.83-21.45,1.23-4.04-7.81-33.91-31.36-35.03-36.97-.46-2.34-.31-4.89.92-7.03,1.75-3.06,10.6-10.96,13.57-14.43,13.75-16.05,49.02-54.6,52.03-73.96,2.02-12.99-6.1-29.18-19.56-16.57-23.27,24.41-46.16,49.15-69.5,73.5-3.23,3.37-3.45,7.65-9.54,3.57-3.58-2.4-11.7-13.66-15.43-17.57-19.02-19.95-38.42-39.6-57.5-59.5-8.66-7.51-14.51-5.99-18.5,4.53-6,15.82,11.85,35.93,21.09,47.88,13.72,17.75,25.93,30.83,42.42,45.58,1.98,1.77,6.44,10.31,6,12.84-3.97,4.3-7.46,9.44-11.51,13.69-3.23,3.39-7,5.93-10.04,8.96-5.01,5.01-12.54,16.95-19.86,16.92-15.15-.06-18.55-6.1-35.98,1.24-43.81,18.45-52.54,69.43-16.12,100.83,43.18,37.23,103.4-8.16,92.02-59.02-1.4-6.26-8.19-17.18-7.53-22.36.66-5.22,10.17-11.24,13.63-14.94Z"/>
      <g>
        <circle class="cls-1" cx="300.06" cy="570.99" r="31.61"/>
        <circle class="cls-1" cx="468.32" cy="570.35" r="31.06"/>
      </g>
    </g>
  </g>
</svg>